<?xml version="1.0" standalone="no"?>
<!DOCTYPE svg PUBLIC "-//W3C//DTD SVG 20010904//EN"
 "http://www.w3.org/TR/2001/REC-SVG-20010904/DTD/svg10.dtd">
<svg version="1.0" xmlns="http://www.w3.org/2000/svg"
 width="512.000000pt" height="512.000000pt" viewBox="0 0 512.000000 512.000000"
 preserveAspectRatio="xMidYMid meet">
<metadata>
Created by potrace 1.16, written by Peter Selinger 2001-2019
</metadata>
<g transform="translate(0.000000,512.000000) scale(0.100000,-0.100000)"
fill="#000000" stroke="none">
<path d="M775 4044 c-84 -31 -135 -108 -135 -204 0 -100 58 -181 149 -209 55
-16 3487 -16 3542 0 21 7 54 25 74 41 99 82 103 240 8 330 -65 62 51 58 -1857
57 -1497 0 -1747 -2 -1781 -15z"/>
<path d="M775 2764 c-84 -31 -135 -108 -135 -204 0 -100 58 -181 149 -209 55
-16 3487 -16 3542 0 21 7 54 25 74 41 99 82 103 240 8 330 -65 62 51 58 -1857
57 -1497 0 -1747 -2 -1781 -15z"/>
<path d="M775 1484 c-84 -31 -135 -108 -135 -204 0 -100 58 -181 149 -209 55
-16 3487 -16 3542 0 21 7 54 25 74 41 99 82 103 240 8 330 -65 62 51 58 -1857
57 -1497 0 -1747 -2 -1781 -15z"/>
</g>
</svg>
