<?xml version="1.0" standalone="no"?>
<!DOCTYPE svg PUBLIC "-//W3C//DTD SVG 20010904//EN"
 "http://www.w3.org/TR/2001/REC-SVG-20010904/DTD/svg10.dtd">
<svg version="1.0" xmlns="http://www.w3.org/2000/svg"
 width="512.000000pt" height="512.000000pt" viewBox="0 0 512.000000 512.000000"
 preserveAspectRatio="xMidYMid meet">
<metadata>
Created by potrace 1.16, written by Peter Selinger 2001-2019
</metadata>
<g transform="translate(0.000000,512.000000) scale(0.100000,-0.100000)"
fill="#000000" stroke="none">
<path d="M322 5100 c-128 -46 -222 -129 -280 -249 -33 -69 -37 -85 -40 -178
-5 -118 16 -203 69 -288 18 -29 393 -413 897 -917 860 -861 867 -868 867 -908
0 -40 -7 -47 -871 -912 -565 -566 -881 -890 -899 -921 -86 -150 -87 -357 -2
-497 137 -224 433 -298 664 -165 31 18 355 334 921 899 865 864 872 871 912
871 40 0 47 -7 908 -867 504 -504 888 -879 917 -897 85 -54 171 -74 289 -69
92 4 109 8 177 41 101 48 177 125 227 226 37 76 37 76 37 206 l0 130 -39 80
c-38 79 -49 91 -914 958 -869 870 -877 877 -877 917 0 40 8 47 867 908 504
504 879 888 897 917 53 85 74 170 69 288 -3 93 -7 109 -41 178 -48 100 -124
177 -225 226 l-76 38 -131 0 -130 0 -80 -39 c-79 -38 -91 -49 -958 -914 -870
-869 -877 -877 -917 -877 -40 0 -47 8 -912 871 -566 565 -890 881 -921 899
-116 66 -292 86 -405 45z"/>
</g>
</svg>
